HIERARCHY
ROOT Hips
{
	OFFSET 0.00000 0.00000 0.00000
	CHANNELS 6 Xposition Yposition Zposition Zrotation Yrotation Xrotation 
	JOINT LHipJoint
	{
		OFFSET 0 0 0
		CHANNELS 3 Zrotation Yrotation Xrotation
		JOINT LeftUpLeg
		{
			OFFSET 1.80322 -1.53100 0.99595
			CHANNELS 3 Zrotation Yrotation Xrotation
			JOINT LeftLeg
			{
				OFFSET 2.25177 -6.18669 0.00000
				CHANNELS 3 Zrotation Yrotation Xrotation
				JOINT LeftFoot
				{
					OFFSET 2.26601 -6.22582 0.00000
					CHANNELS 3 Zrotation Yrotation Xrotation
					JOINT LeftToeBase
					{
						OFFSET 0.23701 -0.65119 2.15848
						CHANNELS 3 Zrotation Yrotation Xrotation
						End Site
						{
							OFFSET 0.00000 -0.00000 1.12949
						}
					}
				}
			}
		}
	}
	JOINT RHipJoint
	{
		OFFSET 0 0 0
		CHANNELS 3 Zrotation Yrotation Xrotation
		JOINT RightUpLeg
		{
			OFFSET -1.93977 -1.53100 0.99595
			CHANNELS 3 Zrotation Yrotation Xrotation
			JOINT RightLeg
			{
				OFFSET -2.28036 -6.26523 0.00000
				CHANNELS 3 Zrotation Yrotation Xrotation
				JOINT RightFoot
				{
					OFFSET -2.25490 -6.19528 0.00000
					CHANNELS 3 Zrotation Yrotation Xrotation
					JOINT RightToeBase
					{
						OFFSET -0.28375 -0.77960 2.23137
						CHANNELS 3 Zrotation Yrotation Xrotation
						End Site
						{
							OFFSET -0.00000 -0.00000 1.17899
						}
					}
				}
			}
		}
	}
	JOINT LowerBack
	{
		OFFSET 0 0 0
		CHANNELS 3 Zrotation Yrotation Xrotation
		JOINT Spine
		{
			OFFSET -0.00088 2.12090 -0.02806
			CHANNELS 3 Zrotation Yrotation Xrotation
			JOINT Spine1
			{
				OFFSET -0.00286 2.09666 0.12974
				CHANNELS 3 Zrotation Yrotation Xrotation
				JOINT Neck
				{
					OFFSET 0 0 0
					CHANNELS 3 Zrotation Yrotation Xrotation
					JOINT Neck1
					{
						OFFSET 0.07328 1.83526 0.07290
						CHANNELS 3 Zrotation Yrotation Xrotation
						JOINT Head
						{
							OFFSET -0.06683 1.74974 -0.49542
							CHANNELS 3 Zrotation Yrotation Xrotation
							End Site
							{
								OFFSET -0.03398 1.85163 -0.17573
							}
						}
					}
				}
				JOINT LeftShoulder
				{
					OFFSET 0 0 0
					CHANNELS 3 Zrotation Yrotation Xrotation
					JOINT LeftArm
					{
						OFFSET 3.02113 1.18018 0.40602
						CHANNELS 3 Zrotation Yrotation Xrotation
						JOINT LeftForeArm
						{
							OFFSET 4.58538 -0.00000 -0.00000
							CHANNELS 3 Zrotation Yrotation Xrotation
							JOINT LeftHand
							{
								OFFSET 2.68935 -0.00000 -0.00000
								CHANNELS 3 Zrotation Yrotation Xrotation
								JOINT LeftFingerBase
								{
									OFFSET 0 0 0
									CHANNELS 3 Zrotation Yrotation Xrotation
									JOINT LeftHandIndex1
									{
										OFFSET 0.58506 -0.00000 -0.00000
										CHANNELS 3 Zrotation Yrotation Xrotation
										End Site
										{
											OFFSET 0.47169 -0.00000 -0.00000
										}
									}
								}
								JOINT LThumb
								{
									OFFSET 0 0 0
									CHANNELS 3 Zrotation Yrotation Xrotation
									End Site
									{
										OFFSET 0.47889 -0.00000 0.47889
									}
								}
							}
						}
					}
				}
				JOINT RightShoulder
				{
					OFFSET 0 0 0
					CHANNELS 3 Zrotation Yrotation Xrotation
					JOINT RightArm
					{
						OFFSET -2.95074 1.18843 0.31430
						CHANNELS 3 Zrotation Yrotation Xrotation
						JOINT RightForeArm
						{
							OFFSET -4.47450 -0.00000 -0.00000
							CHANNELS 3 Zrotation Yrotation Xrotation
							JOINT RightHand
							{
								OFFSET -2.93896 -0.00000 -0.00000
								CHANNELS 3 Zrotation Yrotation Xrotation
								JOINT RightFingerBase
								{
									OFFSET 0 0 0
									CHANNELS 3 Zrotation Yrotation Xrotation
									JOINT RightHandIndex1
									{
										OFFSET -0.40509 -0.00000 -0.00000
										CHANNELS 3 Zrotation Yrotation Xrotation
										End Site
										{
											OFFSET -0.32660 -0.00000 -0.00000
										}
									}
								}
								JOINT RThumb
								{
									OFFSET 0 0 0
									CHANNELS 3 Zrotation Yrotation Xrotation
									End Site
									{
										OFFSET -0.33158 -0.00000 0.33158
									}
								}
							}
						}
					}
				}
			}
		}
	}
}
MOTION
Frames: 7
Frame Time: .0083333
-1.0556 13.8280 3.6508 -3.4062 5.0797 27.5854 0.0000 0.0000 0.0000 3.5996 -5.8546 -68.6309 12.2068 18.4767 66.6429 1.0866 -10.8757 -18.9987 0.5398 -4.7072 -13.0753 0.0000 0.0000 0.0000 16.5886 2.4514 -67.4028 -13.7319 -19.0307 71.3839 -2.3931 -3.8047 -30.7711 -0.4046 4.0838 -11.3126 -4.3927 -2.9149 14.9887 -2.9129 -5.0101 -2.0999 0.4979 -2.2142 -10.6244 14.2751 10.7071 -10.7273 -15.0123 13.2908 0.9571 -5.8484 6.1899 4.0270 0.0000 -0.0000 0.0000 -33.8483 -38.2273 11.7684 39.4903 -47.7650 -18.0610 -0.0000 0.0000 -4.0688 12.6385 19.0971 4.1958 -7.1250 0.0000 -0.0000 -15.2168 48.9046 -1.4970 0.0000 -0.0000 0.0000 83.9280 -7.4790 57.3024 -32.0585 42.5938 -12.7804 0.0000 0.0000 1.2886 -24.4889 -5.7081 2.5939 7.1250 -0.0000 -0.0000 1.8674 -36.2425 0.4023
-1.0579 13.8981 3.6603 -3.3958 5.1021 27.6053 0.0000 0.0000 0.0000 3.4597 -5.9992 -67.9483 11.8385 18.3216 65.4761 1.0559 -10.5941 -18.7028 0.5203 -4.6231 -12.8367 0.0000 0.0000 0.0000 16.7038 2.4903 -66.7967 -13.3682 -18.9111 70.2652 -2.3248 -3.8980 -30.3973 -0.3898 4.0092 -11.1026 -4.3027 -2.8843 14.8258 -2.9072 -4.9449 -2.1454 0.4309 -2.1901 -10.5892 14.2806 10.6212 -10.8112 -14.8831 13.1601 1.0279 -5.8205 6.1256 4.0324 -0.0000 -0.0000 0.0000 -35.1565 -36.3010 13.8783 41.7706 -49.0846 -19.7670 -0.0000 0.0000 -4.0248 12.6886 18.8742 4.1657 -7.1250 0.0000 -0.0000 -15.0857 48.6938 -1.4038 -0.0000 -0.0000 0.0000 83.9519 -7.5496 57.1598 -31.9370 42.4969 -12.6982 0.0000 0.0000 1.0991 -24.3840 -5.7168 2.5853 7.1250 -0.0000 -0.0000 1.9561 -36.2463 0.4212
-1.0601 13.9684 3.6701 -3.3832 5.1311 27.6215 0.0000 0.0000 0.0000 3.3181 -6.1516 -67.2495 11.4674 18.1563 64.2905 1.0261 -10.2998 -18.4091 0.5017 -4.5406 -12.6028 0.0000 0.0000 0.0000 16.8199 2.5212 -66.1778 -13.0031 -18.7833 69.1352 -2.2567 -3.9963 -30.0227 -0.3750 3.9331 -10.8885 -4.2037 -2.8541 14.6592 -2.9072 -4.8790 -2.1907 0.3525 -2.1665 -10.5526 14.2893 10.5313 -10.8887 -14.7447 13.0240 1.1044 -5.7910 6.0595 4.0373 0.0000 -0.0000 0.0000 -36.4294 -34.3243 15.9509 44.1138 -50.3269 -21.5544 -0.0000 0.0000 -4.0435 12.8208 18.7056 4.1743 -7.1250 0.0000 -0.0000 -14.8993 48.5478 -1.3311 0.0000 -0.0000 0.0000 83.9820 -7.6354 57.0024 -31.8229 42.4056 -12.6213 0.0000 0.0000 1.0109 -24.2884 -5.7229 2.5765 7.1250 -0.0000 -0.0000 2.0368 -36.2478 0.4385
-1.0621 14.0389 3.6802 -3.3710 5.1609 27.6362 0.0000 0.0000 0.0000 3.1778 -6.3083 -66.5365 11.0938 17.9807 63.0860 0.9982 -9.9708 -18.1242 0.4847 -4.4643 -12.3866 0.0000 0.0000 0.0000 16.9369 2.5507 -65.5474 -12.6356 -18.6466 67.9899 -2.1879 -4.1022 -29.6423 -0.3605 3.8570 -10.6747 -4.0982 -2.8239 14.4880 -2.9106 -4.8123 -2.2369 0.2667 -2.1430 -10.5149 14.2956 10.4441 -10.9875 -14.5911 12.8907 1.2119 -5.7547 5.9941 4.0542 -0.0000 -0.0000 0.0000 -37.6730 -32.3015 17.9856 46.4934 -51.4795 -23.4015 -0.0000 0.0000 -4.1339 13.0482 18.5888 4.2252 -7.1250 0.0000 -0.0000 -14.6441 48.4658 -1.2773 -0.0000 -0.0000 0.0000 84.0159 -7.7331 56.8391 -31.7166 42.3201 -12.5496 0.0000 0.0000 1.0175 -24.2041 -5.7346 2.5717 7.1250 -0.0000 -0.0000 2.1085 -36.2560 0.4535
-1.0640 14.1093 3.6907 -3.3573 5.1970 27.6437 0.0000 0.0000 0.0000 3.0391 -6.4744 -65.8013 10.7180 17.7943 61.8622 0.9717 -9.6181 -17.8450 0.4685 -4.3900 -12.1765 0.0000 0.0000 0.0000 17.0543 2.5728 -64.8996 -12.2662 -18.5009 66.8300 -2.1188 -4.2159 -29.2586 -0.3459 3.7792 -10.4563 -3.9860 -2.7950 14.3224 -2.9163 -4.7473 -2.2863 0.1756 -2.1205 -10.4843 14.2528 10.3491 -11.1309 -14.3713 12.7479 1.3798 -5.6884 5.9238 4.0868 0.0000 0.0000 0.0000 -38.8793 -30.2406 19.9923 48.8726 -52.5306 -25.2766 -0.0000 0.0000 -4.3095 13.3568 18.5061 4.3099 -7.1250 0.0000 -0.0000 -14.3259 48.4286 -1.2351 0.0000 0.0000 0.0000 84.0487 -7.8458 56.6755 -31.6140 42.2373 -12.4806 0.0000 0.0000 1.0975 -24.1298 -5.7644 2.5761 7.1250 -0.0000 -0.0000 2.1729 -36.2845 0.4659
-1.0654 14.1802 3.7020 -3.3508 5.2309 27.6369 0.0000 0.0000 0.0000 2.9036 -6.6376 -65.0322 10.3403 17.5968 60.6197 0.9464 -9.2440 -17.5727 0.4545 -4.3248 -11.9923 0.0000 0.0000 0.0000 17.1797 2.5923 -64.2191 -11.8926 -18.3449 65.6481 -2.0493 -4.3338 -28.8685 -0.3313 3.6992 -10.2320 -3.8662 -2.7637 14.1623 -2.9222 -4.6786 -2.3365 0.0796 -2.0965 -10.4583 14.2297 10.2586 -11.2570 -14.1666 12.6120 1.5534 -5.6297 5.8575 4.1223 -0.0000 -0.0000 0.0000 -40.0441 -28.1582 21.9574 51.2180 -53.4751 -27.1499 -0.0000 0.0000 -4.5556 13.6961 18.4809 4.4174 -7.1250 0.0000 -0.0000 -13.9996 48.4522 -1.2142 -0.0000 -0.0000 0.0000 84.0801 -7.9800 56.5058 -31.5243 42.1646 -12.4203 0.0000 0.0000 1.2369 -24.0547 -5.7880 2.5775 7.1250 -0.0000 -0.0000 2.2376 -36.3062 0.4786
-1.0668 14.2513 3.7136 -3.3446 5.2732 27.6235 0.0000 0.0000 0.0000 2.7735 -6.8097 -64.2434 9.9619 17.3884 59.3608 0.9205 -8.8618 -17.2935 0.4394 -4.2533 -11.7904 0.0000 0.0000 0.0000 17.3082 2.6034 -63.5197 -11.5164 -18.1787 64.4475 -1.9787 -4.4610 -28.4701 -0.3172 3.6206 -10.0115 -3.7421 -2.7363 14.0042 -2.9260 -4.6144 -2.3868 -0.0151 -2.0749 -10.4333 14.2136 10.1730 -11.3763 -13.9662 12.4831 1.7345 -5.5727 5.7951 4.1612 -0.0000 0.0000 0.0000 -41.1668 -26.0660 23.8606 53.4935 -54.3109 -28.9885 -0.0000 0.0000 -4.8477 14.0320 18.4826 4.5300 -7.1250 0.0000 -0.0000 -13.6860 48.5022 -1.2031 -0.0000 0.0000 0.0000 84.1038 -8.1228 56.3356 -31.4400 42.0962 -12.3638 0.0000 0.0000 1.4077 -23.9805 -5.7916 2.5701 7.1250 -0.0000 -0.0000 2.3003 -36.3061 0.4920
